<svg xmlns="http://www.w3.org/2000/svg" class="svg-logo" width="2400" height="2400" viewBox="0 0 630 430" style="height: auto;"><rect width="630" height="630" y="-100" rx="0" ry="0" fill="transparent" fill-opacity="0"></rect><g data-element="wrapper" transform="translate(-23.245321655278758 83.20699615478308) scale(0.6000000000000094)"><g data-element="container" transform="translate(238.80952695816282 138.80980985126797) scale(0.25396825396825395)"><g ><path id="fill_x5F_1_17_" d="M585.617,300c-13.17-64.817-47.381-130.044-101.477-184.14
	C430.049,61.768,364.815,27.564,299.997,14.392C235.181,27.562,169.956,61.763,115.86,115.86S27.552,235.183,14.383,300
	c13.17,64.817,47.38,130.044,101.477,184.14c54.101,54.1,119.346,88.303,184.174,101.47c64.806-13.174,130.02-47.382,184.107-101.47
	C538.236,430.044,572.448,364.817,585.617,300z" fill="transparent" fill-opacity="0"></path>
<path id="frame_x5F_1_13_" d="M587.769,161.677c-11.434-35.872-30.378-67.208-56.308-93.138s-57.266-44.875-93.138-56.308
	C403.844,1.243,366.668-2.365,327.831,1.504c-9.31,0.928-18.593,2.289-27.832,4.041c-9.238-1.752-18.522-3.113-27.832-4.041
	c-38.838-3.866-76.014-0.262-110.491,10.727c-35.872,11.434-67.208,30.378-93.138,56.308s-44.875,57.267-56.308,93.138
	C1.242,196.155-2.367,233.329,1.504,272.168c0.928,9.31,2.289,18.593,4.041,27.831c-1.752,9.238-3.113,18.522-4.041,27.831
	c-3.871,38.84-0.262,76.014,10.727,110.491c11.433,35.872,30.378,67.208,56.308,93.138s57.266,44.875,93.138,56.308
	c25.543,8.14,52.559,12.23,80.642,12.23c9.824,0,19.784-0.501,29.849-1.504c9.31-0.928,18.593-2.289,27.832-4.041
	c9.238,1.752,18.522,3.113,27.832,4.041c10.068,1.003,20.024,1.504,29.85,1.504c28.08,0,55.101-4.09,80.641-12.23
	c35.872-11.434,67.208-30.378,93.138-56.308s44.875-57.267,56.308-93.138c10.989-34.478,14.598-71.651,10.727-110.491
	c-0.928-9.31-2.289-18.593-4.041-27.831c1.752-9.238,3.113-18.522,4.041-27.831C602.367,233.329,598.758,196.155,587.769,161.677z
	 M82.224,82.225c42.236-42.237,99.327-62.777,160.264-62.777c2.125,0,4.258,0.038,6.392,0.088
	c-50.823,18.273-98.76,48.857-139.624,89.721c-40.86,40.861-71.443,88.793-89.716,139.612
	C18.062,185.557,38.523,125.926,82.224,82.225z M82.224,517.775C38.523,474.074,18.062,414.442,19.54,351.132
	c18.274,50.819,48.856,98.751,89.716,139.612c40.86,40.86,88.792,71.442,139.61,89.716
	C185.556,581.937,125.925,561.476,82.224,517.775z M300.032,574.625c-62.334-12.661-125.071-45.548-177.09-97.567
	C70.926,425.042,38.031,362.324,25.368,300c12.663-62.324,45.558-125.042,97.574-177.058s114.731-84.901,177.055-97.565
	c62.325,12.664,125.05,45.553,177.061,97.565C529.074,174.958,561.97,237.676,574.632,300
	c-12.663,62.324-45.559,125.042-97.574,177.058C425.051,529.065,362.345,561.958,300.032,574.625z M517.775,517.775
	c-42.236,42.237-99.327,62.783-160.264,62.777c-2.125,0-4.257-0.039-6.391-0.089c50.823-18.273,98.759-48.857,139.623-89.72
	c40.86-40.861,71.442-88.793,89.716-139.612C581.938,414.442,561.477,474.074,517.775,517.775z M580.459,248.868
	c-18.274-50.819-48.856-98.751-89.716-139.612c-40.864-40.863-88.801-71.448-139.624-89.721c2.134-0.05,4.267-0.088,6.392-0.088
	c60.927,0,118.033,20.546,160.264,62.777C561.477,125.926,581.938,185.557,580.459,248.868z" fill="#000000" fill-opacity="1"></path></g></g><g ><g data-element="icon" transform="scale(0.13333318413645168) translate(2062.502295589726 1312.5033046006515)"><path id="color_x5F_3" d="M461.303,194.778c-1.491-12.574-1.409-25.237-1.814-37.882    c-0.322-5.892-0.711-12.326-1.189-19.098c-1.379-15.545-5.05-52.435-10.492-66.001c0.835,15.266,1.67,30.532,2.506,45.797    c-2.783-17.126-6.415-34.114-10.876-50.882c-3.89-14.623-6.845-31.032-16.625-42.87c-3.833-4.638-7.354-6.335-12.595-3.088    c-2.02,1.156-4.207,2.817-6.33,4.677c-8.596,7.54-16.727,17.645-24.358,28.146c-7.673,10.554-14.957,21.802-22.008,33.307    c-3.522,5.757-6.971,11.599-10.354,17.486l-5.01,8.868l-8.048,14.92c0,0-13.245-3.702-34.238-2.673    c-4.158,0.204-8.541,0.243-12.912,0.549c14.378-5.407,30.209-6.973,45.275-3.925c-17.84-4.807-37.178-4.896-54.552,1.389    c-3.254,1.177-6.447,2.602-9.425,4.359l-0.792,0.086c-9.895-38.108-28.261-70.777-58.125-98.174    c24.049,28.915,36.41,53.899,47.755,81.135c-1.587-3.018-11.837-21.964-15.49-28.211c-7.319-12.474-14.864-24.386-22.838-35.073    c-3.306-4.562-8.434-11.281-14.042-17.12c-5.534-5.981-11.775-10.443-15.479-11.872c-3.976-1.556-5.726-1.094-9.174,0.763    c-3.153,1.932-6.264,5.789-8.821,10.244c-5.217,9.001-8.582,20.217-11.371,31.429c-5.374,22.723-8.106,46.791-10.052,71.093    c-0.96,12.173-1.653,24.438-2.275,36.825c-0.346,6.263-0.547,12.275-1.131,19.009l-2.042,18.66    c-0.114-18.771,3.356-98.036,4.453-117.772c0,0-16.741,190.401-13.579,223.758c0,0,0.004-0.033,0.011-0.082    c-0.946,14.845-1.694,29.697-2.065,44.501c-0.043,6.243-0.181,12.524,0.05,18.663c0.124,6.17,0.554,12.227,1.836,17.423    c2.754,10.991,8.625,21.938,15.104,32.125c13.267,20.457,30.603,38.466,50.237,52.871c4.349,3.208,8.834,6.217,13.416,9.057    c-17.568-12.016-31.829-27.613-40.887-45.262c16.555,25.695,43.369,46.417,74.878,57.864c31.509,11.448,67.512,13.549,100.538,5.867    c-3.811,1.211-7.688,2.257-11.608,3.167c15.55-3.427,33.076-9.683,51.001-20.489c19.547-11.733,39.775-28.627,56.924-51.588    c0.371,0.308,7.597-8.703,13.289-18.611c4.373-7.361,8.2-15.926,10.482-24.93c2.142-8.893,1.905-19.338,1.952-29.43    c-0.251-30.703-2.947-61.459-4.685-92.131c1.029,3.598,5.028,33.591,5.502,40.801c0.993,15.139,1.73,30.297,2.039,45.466    c0.074,6.583,0.102,13.163-0.153,19.685c-0.03,3.27-0.451,6.481-0.654,9.701c-0.415,3.18-1.166,6.271-1.842,9.354    c-2.866,9.908-7.811,19.019-13.007,27.87c-5.319,9.061-11.182,17.396-18.06,25.36c-3.401,3.939-6.944,7.757-10.599,11.463    c-9.347,9.477-19.557,17.988-30.55,25.496c-4.945,3.377-9.79,6.696-14.714,9.819c52.482-29.668,86.23-80.888,89.474-108.228    c0.592-4.986,0.888-11.527,0.949-19.194C473.719,313.628,463.302,211.624,461.303,194.778z M439.275,304.228    c0,0-21.945-7.871-55.918,0.529c-33.973,8.401-55.919,34.558-55.919,34.558s10.143-41.391,54.823-51.534    C420.426,279.118,439.275,304.228,439.275,304.228z M411.94,63.39c16.446,4.386,16.446,97.583,16.446,97.583    c-33.02-27.535-69.075-37.279-69.075-37.279S395.494,59.004,411.94,63.39z M365.742,226.174c16.32-1.971,18.496,11.826,7.616,19.709    c-10.879,7.884-28.885,21.508-46.783,30.551C326.575,276.434,349.423,228.145,365.742,226.174z M280.796,193.1    c4.715-16.25,14.144-16.204,20.671-16.204c6.528,0,15.957-0.045,20.672,16.204c5.259,18.123-20.672,83.334-20.672,83.334    S275.537,211.223,280.796,193.1z M276.361,276.434c-17.899-9.043-35.904-22.667-46.784-30.551    c-10.88-7.884-8.704-21.681,7.616-19.709C253.513,228.145,276.361,276.434,276.361,276.434z M188.056,63.39    c16.447-4.386,52.629,60.304,52.629,60.304s-36.056,9.744-69.076,37.279C171.609,160.973,171.609,67.776,188.056,63.39z     M190.005,392.259c-7.669,1.118-15.799,2.021-22.907-1.1c-6.423-2.819-11.18-8.653-14.164-15.062    c-2.984-6.407-4.401-13.427-5.792-20.368c13.173,7.842,27.939,12.932,43.104,14.858c6.356,0.808,12.857,1.083,18.914,3.192    c6.057,2.11,11.784,6.488,13.543,12.72C211.862,388.741,200.957,390.662,190.005,392.259z M202.559,359.801    c-14.057-1.502-28.649-3.184-40.68-10.691c-12.03-7.509-20.654-22.662-16.15-36.219c14.685,5.886,29.37,11.771,44.055,17.656    c7.485,2.999,15.083,6.063,21.443,11.057c6.361,4.994,11.431,12.271,11.935,20.4C216.293,361.27,209.426,360.535,202.559,359.801z     M219.579,304.757c-33.973-8.4-55.918-0.529-55.918-0.529s18.851-25.109,57.014-16.447c44.681,10.143,54.823,51.534,54.823,51.534    S253.551,313.158,219.579,304.757z M349.124,432.362c-1.066,1.439-10.774,14.057-23.321,14.057c-9.129,0-20.532-6.253-25.804-9.476    c-5.271,3.223-16.675,9.476-25.807,9.476c-12.544,0-22.252-12.617-23.318-14.057c-1.619-2.184-1.159-5.265,1.022-6.89    c2.18-1.613,5.271-1.176,6.899,1.009c2.095,2.801,8.943,10.069,15.397,10.069c6.264,0,15.79-5.046,20.873-8.166v-15.027    c-14.06-3.73-26.521-21.952-23.574-28.338c3.289-7.127,14.254-15.04,28.507-15.04c14.254,0,25.219,7.913,28.508,15.04    c2.947,6.386-9.515,24.605-23.572,28.338v15.026c5.092,3.12,14.63,8.167,20.869,8.167c6.479,0,13.459-7.452,15.393-10.061    c1.619-2.193,4.713-2.649,6.9-1.027C350.286,427.085,350.746,430.175,349.124,432.362z M450.003,376.098    c-2.985,6.408-7.741,12.242-14.164,15.062c-7.108,3.12-15.239,2.218-22.907,1.1c-10.952-1.597-21.857-3.518-32.699-5.759    c1.76-6.231,7.487-10.609,13.543-12.72c6.058-2.109,12.559-2.385,18.915-3.192c15.165-1.927,29.931-7.017,43.104-14.858    C454.403,362.671,452.987,369.69,450.003,376.098z M441.057,349.109c-12.03,7.508-26.622,9.189-40.679,10.691    c-6.868,0.734-13.735,1.469-20.603,2.203c0.503-8.13,5.573-15.406,11.934-20.4c6.361-4.994,13.959-8.058,21.444-11.057    c14.685-5.886,29.369-11.771,44.054-17.656C461.711,326.447,453.088,341.601,441.057,349.109z" fill="#cccccc" fill-opacity="1"></path> <path id="color_x5F_2" d="M219.579,304.757c-33.973-8.4-55.918-0.529-55.918-0.529s18.851-25.109,57.014-16.447    c44.681,10.143,54.823,51.534,54.823,51.534S253.551,313.158,219.579,304.757z M382.262,287.781    c-44.681,10.143-54.823,51.534-54.823,51.534s21.946-26.156,55.919-34.558c33.973-8.4,55.918-0.529,55.918-0.529    S420.426,279.118,382.262,287.781z M348.096,425.463c-2.188-1.622-5.281-1.166-6.899,1.027c-1.935,2.608-8.915,10.061-15.394,10.061    c-6.239,0-15.777-5.047-20.869-8.167v-15.026c14.058-3.732,26.52-21.952,23.572-28.338c-3.289-7.127-14.254-15.04-28.508-15.04    c-14.253,0-25.218,7.913-28.507,15.04c-2.947,6.386,9.515,24.607,23.574,28.338v15.027c-5.083,3.12-14.609,8.166-20.873,8.166    c-6.454,0-13.302-7.269-15.397-10.069c-1.628-2.185-4.719-2.622-6.899-1.009c-2.182,1.625-2.641,4.706-1.022,6.89    c1.066,1.439,10.774,14.057,23.318,14.057c9.132,0,20.535-6.253,25.807-9.476c5.271,3.223,16.675,9.476,25.804,9.476    c12.547,0,22.255-12.617,23.321-14.057C350.746,430.175,350.286,427.085,348.096,425.463z" ></path> <path id="color_x5F_1" d="M39.115,315.631c3.4,3.199,0.611,15.839,0.41,20.341    c-0.28,6.301-0.562,12.602-0.842,18.902c-0.062,1.378-0.136,2.807-0.78,4.025s-2.032,2.162-3.372,1.835    c-1.828-0.446-2.405-2.724-2.581-4.597c-0.836-8.9,0.008-18.925,1.484-27.767C33.521,327.843,36.715,313.373,39.115,315.631z     M568.156,322.02c-0.169-3.233-0.469-6.58-2.064-9.396c-1.595-2.817-4.842-4.953-8.004-4.259c-2.521,0.553-4.417,2.764-5.309,5.187    c-0.892,2.422-0.95,5.059-0.998,7.641c-0.209,11.205-0.417,22.411-0.626,33.617c-0.122,6.558-1.084,12.292-2.151,18.16    c-0.911,5.012,0.562,21.125,8.972,12.124c1.868-2,2.768-4.695,3.548-7.318C566.887,359.748,569.141,340.801,568.156,322.02z     M545.114,408.068c-0.031,6.259-2.551,12.763-4.675,18.582c-7.994,21.908-22.096,34.026-36.223,51.346    c-14.137,17.33-30.07,32.974-48.449,46.193c-3.805,2.737-13.286,9.025-23.091,14.744c-10.645,3.219-21.615,5.316-32.7,6.194    c23.603-10.521,45.38-25.153,63.716-43.366c31.219-31.009,52.472-71.9,59.908-115.27c-23.917,63.867-78.705,115.352-143.935,135.256    c27.703-6.679,54.012-19.087,76.787-36.217c-30.295,32.384-67.518,58.254-108.431,75.361c13.471-2.218,26.656-5.913,39.446-10.68    c-0.174,0.558-0.254,1.139-0.184,1.733c0.276,2.315,2.539,3.988,4.84,4.365c2.303,0.378,3.9,4.367,6.148,3.744    c12.031-3.336,24.233-7.853,36.166-13.11c0.65-0.158,1.307-0.278,1.954-0.446c3.801-0.987,14.22-6.27,17.78-3.282    c6.285,5.27-19.201,15.192-23.501,17.132c-29.708,13.403-62.238,19.104-94.229,24.072c9.551,1.877,19.111,3.708,28.652,5.631    c1.854,0.374,9.438,0.684,10.497,2.675c4.562,8.562-25.187,7.177-28.92,7.209c-14.263,0.123-28.535-0.796-42.665-2.739    c-28.163-3.871-55.79-11.808-81.603-23.737c-0.376-0.174-0.733-0.384-1.108-0.56c-34.827-5.521-73.823-27.48-100.829-53.903    c-16.189-15.839-28.832-35.488-35.93-56.614c0.821,6.124,2.038,11.372,1.658,12.237c-7.39,16.822-19.034-16.011-20.63-20.41    c-19.48-53.708-29.754-121.951-6.49-175.886c-6.191,4.822-18.63,29.246-25.459,20.928c-2.55-3.104,2.934-17.043,5.046-22.563    c3.061-8.003,6.504-15.87,10.312-23.571c20.507-41.478,44.932-72.077,81.534-96.403c1.257-22.551,3.014-44.468,6.002-65.209    c2.571-17.731,5.601-35.502,12.293-54.685c1.754-4.79,3.748-9.671,6.472-14.61c2.592-4.92,6.085-10.003,11.192-14.588    c1.285-1.146,2.6-2.275,4.276-3.207c1.586-0.982,3.162-1.969,5.095-2.579c3.44-1.514,8.303-2.202,12.292-1.645    c8.3,1.026,14.369,4.9,19.74,8.833c0.136-0.18,0.136-0.18,0.271-0.36c-0.068,0.091,1.193,1.172,3.266,2.89    c2.009,1.744,4.73,4.174,7.465,7.002c5.567,5.613,11.386,12.741,14.952,17.672c-0.178,0.136-0.178,0.136-0.358,0.272    c-0.045,0.034,0.375,0.663,1.146,1.739c0.78,1.099,1.861,2.622,3.163,4.456c2.629,3.679,5.988,8.647,9.259,13.672    c-0.189,0.122-0.189,0.122-0.378,0.245c6.053,9.186,11.64,18.615,16.955,28.168c1.901,3.416,3.732,6.873,5.598,10.309    c2.517,4.636,4.009,9.534,6.669,14.057c0.435,0.761,20.683-1.656,24.611-1.636c8.124,0.069,16.416,0.762,24.404,2.432    c3.759-12.195,11.753-23.93,18.376-34.721c3.869-6.305,5.435-8.855,5.435-8.855c9.782-14.947,24.398-37.309,42.057-53.408    c4.52-3.964,9.311-7.582,15.122-10.015c2.896-1.209,6.211-1.992,9.685-2.027c1.723,0.016,3.556,0.414,5.187,0.739    c1.358,0.462,2.522,0.982,3.693,1.475c4.541,2.104,7.333,4.685,9.089,6.418c0.953,0.857,1.585,1.562,1.948,2.062    c0.396,0.49,0.587,0.762,0.587,0.762c4.658,5.358,7.311,10.461,9.479,15.162c2.224,4.714,3.737,9.126,5.15,13.533    c2.769,8.822,4.878,17.664,7.273,29.425c-0.579,0.091-6.248-23.188-1.767,0.337c4.397,23.498,6.756,61.826,7.036,89.714    c0.035,1.904,0.133,4.033,0.273,6.297c40.954,30.78,70.459,76.644,81.054,126.807c-7.224-21.891-17.741-42.659-30.955-61.544    c9.537,17.395,16.193,36.301,18.978,56.572c0.469,3.411,0.635,7.387-1.866,9.747c-2.584,2.438-5.222,0.384-7.598-3.129    c6.281,21.588,8.219,45.148,5.364,67.774c4.171-10.769,8.589-30.437,11.178-32.5c6.374-5.083,5.296,9.115,5.229,11.742    c-0.034,1.303-2.057,18.548-3.338,25.66c-3.199,17.742-8.868,35.078-16.871,51.363c4.666-5.099,9.077-10.763,14.15-15.482    C543.288,399.714,545.136,403.744,545.114,408.068z M114.081,453.492c-51.224-78.129-52.236-186.203-2.484-265.278    c-50.274,54.792-68.854,136.801-47.105,207.911c-5.995-26.847-5.445-55.131,1.59-81.725    C61.412,364.738,79.36,416.748,114.081,453.492z M216.693,570.577c-20.846-10.227-40.379-22.899-57.923-37.779    c-17.625-14.95-36.756-28.877-50.359-47.6c-3.26-4.487-7.756-9.707-11.98-15.22c7.827,16.474,17.994,31.909,30.421,45.491    C150.66,541.492,182.228,560.752,216.693,570.577z M461.303,194.778c-2.089-17.612-1.074-35.399-2.666-53.067    c-1.016-12.017-4.855-55.023-10.83-69.914c0.835,15.266,1.67,30.532,2.506,45.797c-2.783-17.126-6.415-34.114-10.876-50.882    c-3.89-14.623-6.845-31.032-16.625-42.87c-3.833-4.638-7.354-6.335-12.595-3.088c-2.02,1.156-4.207,2.817-6.331,4.677    c-8.595,7.54-16.726,17.645-24.357,28.146c-7.673,10.554-14.957,21.802-22.008,33.307c-3.522,5.757-6.971,11.599-10.354,17.486    l-5.01,8.868l-8.048,14.92l-13.731-1.498l-6.952-0.584c-4.61-0.335-9.211-0.583-13.555-0.591c-4.163,0.012-8.541,0.243-12.912,0.549    c14.378-5.407,30.209-6.973,45.275-3.925c-17.84-4.807-37.178-4.896-54.552,1.389c-3.254,1.177-6.447,2.602-9.425,4.359    l-0.792,0.086c-9.895-38.108-28.261-70.777-58.126-98.174c24.049,28.915,36.411,53.899,47.755,81.135    c-1.587-3.018-3.169-6.027-4.744-9.021c-3.509-6.533-7.093-12.943-10.746-19.19c-7.319-12.474-14.864-24.386-22.838-35.073    c-3.306-4.562-8.434-11.281-14.042-17.12c-5.534-5.981-11.775-10.443-15.479-11.872c-3.976-1.556-5.726-1.094-9.174,0.763    c-3.153,1.932-6.264,5.789-8.821,10.244c-5.217,9.001-8.582,20.217-11.371,31.429c-5.374,22.723-8.107,46.791-10.052,71.093    c-0.96,12.173-1.653,24.438-2.275,36.825c-0.346,6.263-0.547,12.275-1.131,19.009l-2.042,18.66    c-0.114-18.771,3.356-98.036,4.452-117.772c0,0-16.74,190.401-13.578,223.758c0,0,0.004-0.033,0.01-0.082    c-0.946,14.845-1.694,29.697-2.065,44.501c-0.043,6.243-0.182,12.524,0.05,18.663c0.124,6.17,0.554,12.227,1.836,17.423    c2.754,10.991,8.625,21.938,15.104,32.125c13.267,20.457,30.603,38.466,50.237,52.871c4.349,3.207,8.834,6.217,13.416,9.057    c-17.568-12.016-31.829-27.613-40.887-45.262c16.555,25.695,43.369,46.417,74.878,57.864c31.51,11.448,67.513,13.549,100.538,5.867    c-3.811,1.211-7.688,2.257-11.608,3.167c15.55-3.427,33.076-9.683,51.001-20.489c19.547-11.733,39.775-28.627,56.923-51.588    c0.372,0.308,7.598-8.703,13.29-18.611c4.373-7.361,8.2-15.926,10.482-24.93c2.142-8.893,1.905-19.338,1.952-29.43    c-0.251-30.703-2.947-61.459-4.685-92.131c1.029,3.598,5.028,33.591,5.502,40.801c0.993,15.139,1.73,30.297,2.039,45.466    c0.074,6.583,0.102,13.163-0.153,19.685c-0.03,3.27-0.451,6.481-0.654,9.701c-0.415,3.18-1.166,6.271-1.842,9.354    c-1.48,5.118-3.47,10.08-5.792,14.872c-2.223,4.588-4.36,9.296-7.042,13.641c-8.122,13.162-17.981,25.181-28.831,36.181    c-9.347,9.477-19.557,17.988-30.55,25.496c-12.265,8.376-23.874,16.459-37.757,21.815c-13.99,5.397-28.676,9.188-43.584,10.883    c-0.488,0.056-0.977,0.109-1.466,0.16c-20.026,2.395-41.24-0.356-58.987-5.111c-7.458-1.745-26.8-8.416-43.678-18.21    c6.459,7.085,24.587,16.253,44.198,20.709c15.648,3.557,31.62,6.208,47.67,5.698c27.019-0.602,53.442-8.602,74.638-19.574    c0,0,0.207,0.398,0.311,0.599c-5.362,2.705-10.67,5.52-16.36,7.513l-7.068,2.766c4.286-1.583,8.127-3.225,11.651-4.448    c5.883-2.471,10.512-4.983,14.619-6.851c5.955-3.085,10.328-5.62,14.297-8.008c44.9-30.197,73.313-75.104,76.276-100.079    C477.907,354.725,463.675,214.771,461.303,194.778z M521.935,321.842c-0.935-7.024-2.616-14.164-5.377-20.71    c-2.36-5.594-6.711-11.501-8.024-17.432c3.513,15.863,4.523,33.544,3.746,47.727c-0.587,10.697-6.249,50.275-13.548,56.035    C518.465,371.888,525.143,345.957,521.935,321.842z M171.609,160.973c0,0,0-93.197,16.447-97.583    c16.446-4.386,52.629,60.304,52.629,60.304S204.63,133.438,171.609,160.973z M428.387,160.973c0,0,0-93.197-16.446-97.583    c-16.446-4.386-52.629,60.304-52.629,60.304S395.367,133.438,428.387,160.973z M161.879,349.109    c-12.03-7.509-20.654-22.662-16.15-36.219c14.685,5.886,29.37,11.771,44.055,17.656c7.485,2.999,15.083,6.063,21.443,11.057    c6.361,4.994,11.431,12.271,11.935,20.4c-6.868-0.734-13.735-1.469-20.603-2.203C188.501,358.299,173.909,356.617,161.879,349.109z     M167.098,391.159c7.108,3.12,15.238,2.218,22.907,1.1c10.952-1.597,21.857-3.518,32.698-5.759    c-1.759-6.231-7.486-10.609-13.543-12.72c-6.057-2.109-12.558-2.385-18.914-3.192c-15.166-1.927-29.932-7.017-43.105-14.858    c1.392,6.941,2.808,13.961,5.792,20.368C155.918,382.506,160.675,388.34,167.098,391.159z M400.378,359.801    c-6.868,0.734-13.735,1.469-20.603,2.203c0.503-8.13,5.573-15.406,11.934-20.4c6.361-4.994,13.959-8.058,21.444-11.057    c14.685-5.886,29.369-11.771,44.054-17.656c4.504,13.557-4.119,28.71-16.15,36.219C429.026,356.617,414.435,358.299,400.378,359.801    z M450.002,376.098c2.985-6.407,4.401-13.427,5.793-20.368c-13.174,7.842-27.939,12.932-43.105,14.858    c-6.355,0.808-12.856,1.083-18.913,3.192c-6.058,2.11-11.784,6.488-13.543,12.72c10.841,2.241,21.746,4.162,32.698,5.759    c7.668,1.118,15.799,2.021,22.907-1.1C442.262,388.34,447.018,382.506,450.002,376.098z M229.577,245.883    c-10.88-7.884-8.704-21.681,7.616-19.709c16.32,1.971,39.167,50.26,39.167,50.26C258.462,267.391,240.457,253.768,229.577,245.883z     M373.358,245.883c10.88-7.884,8.704-21.681-7.615-19.709c-16.32,1.971-39.168,50.26-39.168,50.26    C344.474,267.391,362.479,253.768,373.358,245.883z M322.14,193.1c-4.715-16.25-14.144-16.204-20.672-16.204    c-6.527,0-15.957-0.045-20.671,16.204c-5.259,18.123,20.671,83.334,20.671,83.334S327.398,211.223,322.14,193.1z" fill="#000000" fill-opacity="1"></path></g><path d="M510.20 227.48L511.93 228.31Q510.20 232.53 507.06 234.84Q503.93 237.14 497.66 237.14L497.66 237.14Q489.78 237.14 486.26 232.31Q482.74 227.48 482.74 217.24L482.74 217.24L482.74 210.96Q482.74 200.72 486.26 195.89Q489.78 191.06 497.66 191.06L497.66 191.06Q503.93 191.06 507.06 193.36Q510.20 195.67 511.93 199.89L511.93 199.89L510.20 200.72Q508.73 197.01 506.04 195.00Q503.35 192.98 497.66 192.98L497.66 192.98Q494.52 192.98 492.28 193.78Q490.04 194.58 488.25 196.50Q486.46 198.42 485.56 202.04Q484.66 205.65 484.66 210.96L484.66 210.96L484.66 217.24Q484.66 222.55 485.56 226.16Q486.46 229.78 488.25 231.70Q490.04 233.62 492.28 234.42Q494.52 235.22 497.66 235.22L497.66 235.22Q503.35 235.22 506.04 233.20Q508.73 231.19 510.20 227.48L510.20 227.48ZM540.15 201.33Q537.98 200.66 534.78 200.66Q531.58 200.66 529.40 201.33Q527.22 202.00 525.40 203.83Q523.58 205.65 522.68 209.14Q521.78 212.63 521.78 217.94Q521.78 223.25 522.68 226.74Q523.58 230.23 525.40 232.05Q527.22 233.88 529.40 234.55Q531.58 235.22 534.78 235.22Q537.98 235.22 540.15 234.55Q542.33 233.88 544.15 232.05Q545.98 230.23 546.87 226.74Q547.77 223.25 547.77 217.94Q547.77 212.63 546.87 209.14Q545.98 205.65 544.15 203.83Q542.33 202.00 540.15 201.33ZM546.23 232.60Q542.78 237.14 534.78 237.14Q526.78 237.14 523.32 232.60Q519.86 228.05 519.86 217.94Q519.86 207.83 523.32 203.28Q526.78 198.74 534.78 198.74Q542.78 198.74 546.23 203.28Q549.69 207.83 549.69 217.94Q549.69 228.05 546.23 232.60ZM565.11 236.50L565.11 236.50L560.25 236.50L560.25 199.38L565.11 199.38Q574.58 199.38 580.22 204.37Q585.85 209.36 585.85 217.94Q585.85 226.52 580.22 231.51Q574.58 236.50 565.11 236.50ZM562.17 234.58L565.11 234.58Q573.75 234.58 578.84 230.16Q583.93 225.75 583.93 217.94Q583.93 210.13 578.84 205.72Q573.75 201.30 565.11 201.30L565.11 201.30L562.17 201.30L562.17 234.58ZM619.06 231.44L620.47 232.72Q616.95 237.14 608.95 237.14Q600.95 237.14 597.50 232.60Q594.04 228.05 594.04 217.94Q594.04 207.83 597.50 203.28Q600.95 198.74 608.95 198.74L608.95 198.74Q618.23 198.74 621.56 204.82L621.56 204.82L605.88 217.94L602.87 217.94L619.06 204.44Q616.25 200.66 608.95 200.66L608.95 200.66Q605.75 200.66 603.58 201.33Q601.40 202.00 599.58 203.83Q597.75 205.65 596.86 209.14Q595.96 212.63 595.96 217.94Q595.96 223.25 596.86 226.74Q597.75 230.23 599.58 232.05Q601.40 233.88 603.58 234.55Q605.75 235.22 608.95 235.22L608.95 235.22Q616.25 235.22 619.06 231.44L619.06 231.44ZM646.33 217.88L646.33 217.88L655.03 236.50L652.92 236.50L643.96 217.30Q644.09 217.24 645.08 216.76Q646.07 216.28 646.46 216.05Q646.84 215.83 647.74 215.25Q648.63 214.68 649.08 214.13Q649.53 213.59 650.07 212.85Q650.62 212.12 650.87 211.19Q651.13 210.26 651.13 209.17L651.13 209.17Q651.13 205.14 647.29 203.22Q643.45 201.30 637.75 201.30L637.75 201.30L632.63 201.30L632.63 236.50L630.71 236.50L630.71 199.38L637.75 199.38Q645.30 199.38 649.18 202.00Q653.05 204.63 653.05 209.17L653.05 209.17Q653.05 212.12 651.06 214.39Q649.08 216.66 646.33 217.88ZM669.62 221.46L667.00 236.31L665.08 235.99L667.64 221.46L661.30 221.46L661.30 219.54L668.02 219.54L669.94 208.66L662.58 208.66L662.58 206.74L670.26 206.74L672.89 191.89L674.81 192.21L672.25 206.74L682.94 206.74L685.56 191.89L687.48 192.21L684.92 206.74L691.26 206.74L691.26 208.66L684.54 208.66L682.62 219.54L689.98 219.54L689.98 221.46L682.30 221.46L679.67 236.31L677.75 235.99L680.31 221.46L669.62 221.46ZM682.62 208.66L671.86 208.66L669.94 219.54L680.70 219.54L682.62 208.66ZM703.80 193.62L703.80 205.65L710.78 205.65Q716.73 205.65 721.14 210.13Q725.56 214.61 725.56 221.33L725.56 221.33Q725.56 228.12 721.56 232.63Q717.56 237.14 710.97 237.14L710.97 237.14Q707.90 237.14 705.40 236.34Q702.90 235.54 701.53 234.39Q700.15 233.24 699.19 232.08Q698.23 230.93 697.98 230.10L697.98 230.10L697.66 229.33L699.45 228.56Q699.51 228.82 699.74 229.27Q699.96 229.72 700.86 230.87Q701.75 232.02 702.94 232.92Q704.12 233.81 706.26 234.52Q708.41 235.22 710.97 235.22L710.97 235.22Q716.86 235.22 720.25 231.22Q723.64 227.22 723.64 221.33L723.64 221.33Q723.64 215.70 719.77 211.64Q715.90 207.57 710.52 207.57L710.52 207.57L701.88 207.57L701.88 191.70L720.82 191.70L720.82 193.62L703.80 193.62ZM734.52 193.62L734.52 191.70L759.61 191.70L746.10 208.85Q748.98 209.24 751.48 210.16Q753.98 211.09 756.15 212.72Q758.33 214.36 759.61 216.98Q760.89 219.60 760.89 222.93L760.89 222.93Q760.89 229.52 756.95 233.33Q753.02 237.14 746.30 237.14L746.30 237.14Q743.22 237.14 740.54 236.31Q737.85 235.48 736.22 234.32Q734.58 233.17 733.37 232.02Q732.15 230.87 731.64 230.04L731.64 230.04L731.19 229.20L732.98 228.44Q733.18 228.69 733.50 229.17Q733.82 229.65 735.03 230.80Q736.25 231.96 737.66 232.85Q739.06 233.75 741.40 234.48Q743.74 235.22 746.30 235.22L746.30 235.22Q752.38 235.22 755.67 231.92Q758.97 228.63 758.97 222.93L758.97 222.93Q758.97 217.62 755.32 214.68Q751.67 211.73 745.85 210.77L745.85 210.77L742.65 210.26L755.64 193.62L734.52 193.62ZM774.90 191.70L774.90 236.50L772.98 236.50L772.98 198.68L769.59 210.39L767.61 210.39L772.98 191.70L774.90 191.70ZM786.87 193.62L786.87 191.70L811.96 191.70L798.46 208.85Q801.34 209.24 803.83 210.16Q806.33 211.09 808.50 212.72Q810.68 214.36 811.96 216.98Q813.24 219.60 813.24 222.93L813.24 222.93Q813.24 229.52 809.30 233.33Q805.37 237.14 798.65 237.14L798.65 237.14Q795.58 237.14 792.89 236.31Q790.20 235.48 788.57 234.32Q786.94 233.17 785.72 232.02Q784.50 230.87 783.99 230.04L783.99 230.04L783.54 229.20L785.34 228.44Q785.53 228.69 785.85 229.17Q786.17 229.65 787.38 230.80Q788.60 231.96 790.01 232.85Q791.42 233.75 793.75 234.48Q796.09 235.22 798.65 235.22L798.65 235.22Q804.73 235.22 808.02 231.92Q811.32 228.63 811.32 222.93L811.32 222.93Q811.32 217.62 807.67 214.68Q804.02 211.73 798.20 210.77L798.20 210.77L795.00 210.26L807.99 193.62L786.87 193.62Z" data-element="company-name" data-text-path="" data-text="Coder#5313" data-font-family="Megrim" fill="#000000" fill-opacity="1"></path><path d="M406.61 293.50L406.61 293.07L408.92 292.20L416.84 273.05L417.70 273.05L425.91 292.64L427.35 293.07L427.35 293.50L423.89 293.50Q422.40 293.50 421.45 292.82Q420.50 292.15 420.04 291.05L420.04 291.05L418.57 287.60L411.68 287.60L409.78 292.20L411.94 293.07L411.94 293.50L406.61 293.50ZM415.11 279.30L411.97 286.88L418.28 286.88L415.11 279.30ZM435.70 293.93Q432.02 293.93 429.97 291.90Q427.93 289.87 427.93 286.30L427.93 286.30Q427.93 282.73 429.97 280.70Q432.02 278.67 435.70 278.67L435.70 278.67Q438.35 278.67 439.69 279.59Q441.03 280.51 441.03 281.84L441.03 281.84Q441.03 282.82 440.44 283.41Q439.85 284.00 438.87 284.00L438.87 284.00Q438.47 284.00 438.06 283.94L438.06 283.94L437.72 283.85L437.72 279.53L437.32 279.39Q436.88 279.24 436.28 279.24L436.28 279.24Q434.64 279.24 433.73 280.80Q432.82 282.35 432.82 286.30L432.82 286.30Q432.82 290.13 433.73 291.67Q434.64 293.21 436.28 293.21L436.28 293.21Q437.40 293.21 438.37 292.68Q439.33 292.15 439.89 291.27Q440.45 290.39 440.45 289.47L440.45 289.47L441.17 289.47Q441.17 290.62 440.48 291.66Q439.79 292.69 438.55 293.31Q437.32 293.93 435.70 293.93L435.70 293.93ZM450.68 293.93Q448.78 293.93 447.38 293.24Q445.98 292.55 445.24 291.34Q444.49 290.13 444.49 288.60L444.49 288.60L444.49 279.82L442.47 279.82L442.47 279.10L444.49 279.10L444.49 277.66Q444.49 275.07 447.08 275.07L447.08 275.07L449.09 275.07L449.09 279.10L453.13 279.10L453.13 279.82L449.09 279.82L449.09 288.60Q449.09 291.25 449.64 292.23Q450.19 293.21 451.25 293.21L451.25 293.21Q452.29 293.21 453.07 292.20Q453.85 291.20 453.85 289.47L453.85 289.47L454.57 289.47Q454.57 291.60 453.50 292.77Q452.44 293.93 450.68 293.93L450.68 293.93ZM456.15 293.50L456.15 293.07L457.88 292.64L457.88 279.96L456.15 279.53L456.15 279.10L459.89 279.10Q462.49 279.10 462.49 281.69L462.49 281.69L462.49 292.64L464.21 293.07L464.21 293.50L456.15 293.50ZM459.89 277.37Q459.03 277.37 458.45 276.80Q457.88 276.22 457.88 275.36L457.88 275.36Q457.88 274.49 458.45 273.92Q459.03 273.34 459.89 273.34L459.89 273.34Q460.76 273.34 461.33 273.92Q461.91 274.49 461.91 275.36L461.91 275.36Q461.91 276.22 461.33 276.80Q460.76 277.37 459.89 277.37L459.89 277.37ZM473.57 293.93Q470.00 293.93 467.97 291.90Q465.94 289.87 465.94 286.30L465.94 286.30Q465.94 282.73 467.97 280.70Q470.00 278.67 473.57 278.67L473.57 278.67Q477.15 278.67 479.18 280.70Q481.21 282.73 481.21 286.30L481.21 286.30Q481.21 289.87 479.18 291.90Q477.15 293.93 473.57 293.93L473.57 293.93ZM473.57 293.36Q474.73 293.36 475.52 291.74Q476.31 290.13 476.31 286.30L476.31 286.30Q476.31 282.47 475.52 280.86Q474.73 279.24 473.57 279.24L473.57 279.24Q472.42 279.24 471.63 280.86Q470.84 282.47 470.84 286.30L470.84 286.30Q470.84 290.13 471.63 291.74Q472.42 293.36 473.57 293.36L473.57 293.36ZM483.51 293.50L483.51 293.07L485.24 292.64L485.24 279.96L483.51 279.53L483.51 279.10L486.10 279.10Q487.80 279.10 488.78 280.19L488.78 280.19Q489.16 280.63 489.41 281.26L489.41 281.26Q489.82 280.51 490.36 279.96L490.36 279.96Q491.66 278.67 493.59 278.67L493.59 278.67Q495.20 278.67 496.48 279.34Q497.77 280.02 498.49 281.12Q499.21 282.21 499.21 283.42L499.21 283.42L499.21 292.64L500.93 293.07L500.93 293.50L497.19 293.50Q494.60 293.50 494.60 290.91L494.60 290.91L494.60 283.42Q494.60 281.61 493.95 280.64Q493.30 279.68 492.44 279.68L492.44 279.68Q491.34 279.68 490.48 280.83L490.48 280.83Q490.11 281.32 489.85 281.98L489.85 281.98L489.85 292.64L491.57 293.07L491.57 293.50L483.51 293.50ZM518.07 293.93Q516.03 293.93 514.24 293.01L514.24 293.01Q513.43 292.61 512.89 292.06L512.89 292.06Q512.48 292.72 511.88 293.24L511.88 293.24Q511.36 293.62 511.30 293.64L511.30 293.64L510.58 293.64L510.58 288.17L511.73 288.17Q512.17 289.58 512.94 290.71L512.94 290.71Q514.70 293.21 517.49 293.21L517.49 293.21Q519.14 293.21 520.12 292.23Q521.09 291.25 521.09 289.61L521.09 289.61Q521.09 288.66 520.53 287.91Q519.97 287.16 519.14 286.59Q518.30 286.01 516.80 285.15L516.80 285.15Q514.90 284.08 513.72 283.22Q512.54 282.35 511.71 281.04Q510.87 279.73 510.87 277.95L510.87 277.95Q510.87 276.54 511.66 275.40Q512.45 274.26 514.04 273.58Q515.62 272.91 517.93 272.91L517.93 272.91Q519.60 272.91 521.27 273.86L521.27 273.86Q521.90 274.20 522.53 274.78L522.53 274.78Q523.02 274.03 523.54 273.60L523.54 273.60Q524.06 273.22 524.12 273.20L524.12 273.20L524.84 273.20L524.84 278.67L523.69 278.67Q523.31 277.29 522.56 276.16L522.56 276.16Q521.87 275.07 520.85 274.35Q519.83 273.63 518.50 273.63L518.50 273.63Q517.38 273.63 516.57 274.52Q515.77 275.41 515.77 276.80L515.77 276.80Q515.77 277.86 516.39 278.71Q517.00 279.56 517.91 280.19Q518.82 280.83 520.37 281.72L520.37 281.72Q522.19 282.76 523.31 283.56Q524.44 284.37 525.21 285.57Q525.99 286.76 525.99 288.32L525.99 288.32Q525.99 289.87 525.10 291.15Q524.20 292.43 522.42 293.18Q520.63 293.93 518.07 293.93L518.07 293.93ZM527.57 299.26L527.57 298.83L529.30 298.40L529.30 279.96L527.57 279.53L527.57 279.10L530.17 279.10Q531.87 279.10 532.84 280.19L532.84 280.19Q533.22 280.63 533.48 281.26L533.48 281.26Q533.85 280.51 534.43 279.96L534.43 279.96Q535.72 278.67 537.65 278.67L537.65 278.67Q539.35 278.67 540.68 279.55Q542.00 280.42 542.78 282.14Q543.56 283.85 543.56 286.30L543.56 286.30Q543.56 289.99 541.84 291.96Q540.13 293.93 537.22 293.93L537.22 293.93Q535.84 293.93 534.80 293.36L534.80 293.36Q534.37 293.15 533.91 292.78L533.91 292.78L533.91 298.40L535.64 298.83L535.64 299.26L527.57 299.26ZM536.07 293.07Q537.31 293.07 537.99 291.63Q538.66 290.19 538.66 286.30L538.66 286.30Q538.66 282.58 538.04 281.13Q537.42 279.68 536.50 279.68L536.50 279.68Q535.41 279.68 534.54 280.83L534.54 280.83Q534.17 281.32 533.91 281.98L533.91 281.98L533.91 291.92Q534.31 292.32 534.54 292.49L534.54 292.49Q535.32 293.07 536.07 293.07L536.07 293.07ZM553.64 293.93Q549.95 293.93 547.91 291.90Q545.86 289.87 545.86 286.30L545.86 286.30Q545.86 283.97 546.76 282.24Q547.65 280.51 549.25 279.59Q550.84 278.67 552.92 278.67L552.92 278.67Q554.99 278.67 556.56 279.45Q558.13 280.22 558.98 281.53Q559.83 282.84 559.83 284.43L559.83 284.43Q559.83 285.15 559.69 285.67L559.69 285.67L559.54 286.16Q558.30 286.42 556.86 286.59L556.86 286.59Q553.84 287.02 550.76 287.02L550.76 287.02Q550.76 290.36 551.68 291.79Q552.60 293.21 554.21 293.21L554.21 293.21Q555.34 293.21 556.30 292.68Q557.27 292.15 557.83 291.27Q558.39 290.39 558.39 289.47L558.39 289.47L559.11 289.47Q559.11 290.62 558.42 291.66Q557.73 292.69 556.49 293.31Q555.25 293.93 553.64 293.93L553.64 293.93ZM550.76 286.30Q552.60 286.30 553.75 286.16L553.75 286.16Q554.24 286.13 554.79 286.01L554.79 286.01Q554.82 285.87 554.93 285.38L554.93 285.38Q555.08 284.66 555.08 283.85L555.08 283.85Q555.08 281.46 554.44 280.35Q553.81 279.24 552.92 279.24L552.92 279.24Q550.76 279.24 550.76 286.30L550.76 286.30ZM567.32 293.93Q564.76 293.93 563.37 292.84Q561.99 291.74 561.99 290.04L561.99 290.04Q561.99 288.92 562.48 287.83L562.48 287.83Q562.68 287.31 563.00 286.88L563.00 286.88Q564.18 286.59 565.56 286.36L565.56 286.36Q568.67 285.84 571.06 285.72L571.06 285.72L571.06 284.86Q571.06 281.66 570.28 280.45Q569.51 279.24 567.89 279.24L567.89 279.24Q567.29 279.24 566.86 279.39L566.86 279.39L566.45 279.53L566.45 283.85L566.08 283.94Q565.62 284.00 565.30 284.00L565.30 284.00Q564.32 284.00 563.73 283.41Q563.14 282.82 563.14 281.84L563.14 281.84Q563.14 280.51 564.48 279.59Q565.82 278.67 568.47 278.67L568.47 278.67Q570.72 278.67 572.34 279.46Q573.97 280.25 574.82 281.65Q575.67 283.05 575.67 284.86L575.67 284.86L575.67 292.64L577.40 293.07L577.40 293.50L574.81 293.50Q573.08 293.50 572.13 292.43L572.13 292.43Q571.72 292.00 571.49 291.34L571.49 291.34Q571.09 292.06 570.54 292.64L570.54 292.64Q569.25 293.93 567.32 293.93L567.32 293.93ZM568.47 292.92Q569.54 292.92 570.40 291.77L570.40 291.77Q570.72 291.34 571.06 290.62L571.06 290.62L571.06 286.44Q569.74 286.44 568.53 286.59L568.53 286.59Q567.64 286.70 567.32 286.73L567.32 286.73Q567.17 287.05 567.03 287.60L567.03 287.60Q566.74 288.69 566.74 289.76L566.74 289.76Q566.74 291.37 567.23 292.15Q567.72 292.92 568.47 292.92L568.47 292.92ZM579.13 293.50L579.13 293.07L580.85 292.64L580.85 274.20L579.13 273.77L579.13 273.34L582.87 273.34Q585.46 273.34 585.46 275.93L585.46 275.93L585.46 286.01L590.79 280.40L588.63 279.53L588.63 279.10L594.10 279.10L594.10 279.53L591.80 280.40L588.49 283.85L594.10 292.64L595.54 293.07L595.54 293.50L591.80 293.50Q590.42 293.50 589.55 292.90Q588.69 292.29 587.91 291.05L587.91 291.05L585.46 287.16L585.46 292.64L587.19 293.07L587.19 293.50L579.13 293.50ZM603.17 293.93Q601.39 293.93 599.98 293.15L599.98 293.15Q599.29 292.78 598.85 292.35L598.85 292.35Q598.39 292.98 597.85 293.33L597.85 293.33Q597.59 293.50 597.27 293.64L597.27 293.64L596.55 293.64L596.55 288.75L597.70 288.75Q598.08 289.96 598.80 290.99L598.80 290.99Q600.32 293.21 602.60 293.21L602.60 293.21Q603.81 293.21 604.43 292.62Q605.05 292.03 605.05 290.91L605.05 290.91Q605.05 289.96 604.20 289.31Q603.35 288.66 601.53 287.71L601.53 287.71Q599.98 286.93 599.01 286.31Q598.05 285.70 597.37 284.76Q596.69 283.82 596.69 282.56L596.69 282.56Q596.69 280.83 598.18 279.75Q599.66 278.67 602.74 278.67L602.74 278.67Q604.27 278.67 605.56 279.47L605.56 279.47Q606.20 279.85 606.66 280.25L606.66 280.25Q607.03 279.73 607.67 279.27L607.67 279.27Q608.16 278.98 608.24 278.96L608.24 278.96L608.96 278.96L608.96 283.85L607.81 283.85Q607.38 282.61 606.75 281.63L606.75 281.63Q605.31 279.39 603.32 279.39L603.32 279.39Q602.54 279.39 601.99 279.96Q601.45 280.54 601.45 281.40L601.45 281.40Q601.45 282.50 602.37 283.23Q603.29 283.97 605.16 284.92L605.16 284.92Q606.69 285.70 607.60 286.29Q608.50 286.88 609.15 287.74Q609.80 288.60 609.80 289.76L609.80 289.76Q609.80 293.93 603.17 293.93L603.17 293.93ZM620.31 293.50L620.31 293.07L622.04 292.64L622.04 274.20L620.31 273.77L620.31 273.34L628.52 273.34L628.52 273.77L626.79 274.20L626.79 292.78L632.98 292.78Q632.98 290.97 633.90 289.41L633.90 289.41Q634.31 288.75 634.85 288.32L634.85 288.32L635.72 288.32L635.72 293.50L620.31 293.50ZM645.22 293.93Q641.65 293.93 639.62 291.90Q637.59 289.87 637.59 286.30L637.59 286.30Q637.59 282.73 639.62 280.70Q641.65 278.67 645.22 278.67L645.22 278.67Q648.79 278.67 650.82 280.70Q652.85 282.73 652.85 286.30L652.85 286.30Q652.85 289.87 650.82 291.90Q648.79 293.93 645.22 293.93L645.22 293.93ZM645.22 293.36Q646.37 293.36 647.17 291.74Q647.96 290.13 647.96 286.30L647.96 286.30Q647.96 282.47 647.17 280.86Q646.37 279.24 645.22 279.24L645.22 279.24Q644.07 279.24 643.28 280.86Q642.49 282.47 642.49 286.30L642.49 286.30Q642.49 290.13 643.28 291.74Q644.07 293.36 645.22 293.36L645.22 293.36ZM662.07 293.93Q660.46 293.93 659.18 293.26Q657.89 292.58 657.17 291.48Q656.45 290.39 656.45 289.18L656.45 289.18L656.45 279.96L654.73 279.53L654.73 279.10L658.47 279.10Q661.06 279.10 661.06 281.69L661.06 281.69L661.06 289.18Q661.06 290.99 661.71 291.96Q662.36 292.92 663.22 292.92L663.22 292.92Q664.29 292.92 665.15 291.77L665.15 291.77Q665.47 291.34 665.81 290.62L665.81 290.62L665.81 279.96L664.09 279.53L664.09 279.10L672.15 279.10L672.15 279.53L670.42 279.96L670.42 293.64L670.13 293.64Q668.03 293.64 666.94 292.49L666.94 292.49Q666.45 291.97 666.25 291.34L666.25 291.34Q665.84 292.06 665.30 292.64L665.30 292.64Q664.00 293.93 662.07 293.93L662.07 293.93ZM679.78 293.93Q678.08 293.93 676.76 293.05Q675.43 292.18 674.66 290.46Q673.88 288.75 673.88 286.30L673.88 286.30Q673.88 282.61 675.59 280.64Q677.31 278.67 680.21 278.67L680.21 278.67Q681.60 278.67 682.63 279.24L682.63 279.24Q683.07 279.45 683.53 279.82L683.53 279.82L683.53 274.20L681.80 273.77L681.80 273.34L685.54 273.34Q688.13 273.34 688.13 275.93L688.13 275.93L688.13 292.64L689.86 293.07L689.86 293.50L687.27 293.50Q685.54 293.50 684.59 292.43L684.59 292.43Q684.19 292.00 683.96 291.34L683.96 291.34Q683.58 292.06 683.01 292.64L683.01 292.64Q681.71 293.93 679.78 293.93L679.78 293.93ZM680.93 292.92Q682.00 292.92 682.86 291.77L682.86 291.77Q683.18 291.34 683.53 290.62L683.53 290.62L683.53 280.68Q683.21 280.37 682.86 280.11L682.86 280.11Q682.09 279.53 681.37 279.53L681.37 279.53Q680.13 279.53 679.45 280.97Q678.77 282.41 678.77 286.30L678.77 286.30Q678.77 290.02 679.39 291.47Q680.01 292.92 680.93 292.92L680.93 292.92ZM699.51 293.93Q695.82 293.93 693.78 291.90Q691.73 289.87 691.73 286.30L691.73 286.30Q691.73 283.97 692.63 282.24Q693.52 280.51 695.12 279.59Q696.72 278.67 698.79 278.67L698.79 278.67Q700.86 278.67 702.43 279.45Q704.00 280.22 704.85 281.53Q705.70 282.84 705.70 284.43L705.70 284.43Q705.70 285.15 705.56 285.67L705.56 285.67L705.41 286.16Q704.18 286.42 702.74 286.59L702.74 286.59Q699.71 287.02 696.63 287.02L696.63 287.02Q696.63 290.36 697.55 291.79Q698.47 293.21 700.09 293.21L700.09 293.21Q701.21 293.21 702.17 292.68Q703.14 292.15 703.70 291.27Q704.26 290.39 704.26 289.47L704.26 289.47L704.98 289.47Q704.98 290.62 704.29 291.66Q703.60 292.69 702.36 293.31Q701.12 293.93 699.51 293.93L699.51 293.93ZM696.63 286.30Q698.47 286.30 699.63 286.16L699.63 286.16Q700.12 286.13 700.66 286.01L700.66 286.01Q700.69 285.87 700.81 285.38L700.81 285.38Q700.95 284.66 700.95 283.85L700.95 283.85Q700.95 281.46 700.32 280.35Q699.68 279.24 698.79 279.24L698.79 279.24Q696.63 279.24 696.63 286.30L696.63 286.30ZM707.86 293.50L707.86 293.07L709.59 292.64L709.59 279.96L707.86 279.53L707.86 279.10L710.45 279.10Q712.15 279.10 713.13 280.19L713.13 280.19Q713.51 280.63 713.77 281.26L713.77 281.26Q714.20 280.63 714.83 280.11L714.83 280.11Q716.27 278.96 718.06 278.96L718.06 278.96Q719.58 278.96 720.35 279.66Q721.11 280.37 721.11 281.69L721.11 281.69Q721.11 282.67 720.52 283.26Q719.93 283.85 718.95 283.85L718.95 283.85Q718.55 283.85 718.14 283.79L718.14 283.79L717.80 283.71L717.80 279.68Q716.33 279.68 715.12 280.83L715.12 280.83Q714.54 281.40 714.20 281.98L714.20 281.98L714.20 292.64L715.93 293.07L715.93 293.50L707.86 293.50ZM734.36 293.50L734.36 293.07L736.09 292.64L736.09 274.06L732.77 274.06Q732.77 275.82 731.82 277.43L731.82 277.43Q731.42 278.09 730.90 278.52L730.90 278.52L730.04 278.52L730.04 273.34L746.89 273.34L746.89 278.52L746.02 278.52Q745.48 278.09 745.07 277.43L745.07 277.43Q744.15 275.87 744.15 274.06L744.15 274.06L740.84 274.06L740.84 292.64L742.57 293.07L742.57 293.50L734.36 293.50ZM748.76 293.50L748.76 293.07L750.49 292.64L750.49 274.20L748.76 273.77L748.76 273.34L752.50 273.34Q755.09 273.34 755.09 275.93L755.09 275.93L755.09 280.54Q755.53 279.96 755.99 279.62L755.99 279.62Q757.23 278.67 758.84 278.67L758.84 278.67Q760.45 278.67 761.73 279.34Q763.01 280.02 763.73 281.12Q764.45 282.21 764.45 283.42L764.45 283.42L764.45 292.64L766.18 293.07L766.18 293.50L762.44 293.50Q759.85 293.50 759.85 290.91L759.85 290.91L759.85 283.42Q759.85 281.61 759.20 280.64Q758.55 279.68 757.69 279.68L757.69 279.68Q756.59 279.68 755.73 280.83L755.73 280.83Q755.35 281.32 755.09 281.98L755.09 281.98L755.09 292.64L756.82 293.07L756.82 293.50L748.76 293.50ZM773.53 293.93Q770.96 293.93 769.58 292.84Q768.20 291.74 768.20 290.04L768.20 290.04Q768.20 288.92 768.69 287.83L768.69 287.83Q768.89 287.31 769.21 286.88L769.21 286.88Q770.39 286.59 771.77 286.36L771.77 286.36Q774.88 285.84 777.27 285.72L777.27 285.72L777.27 284.86Q777.27 281.66 776.49 280.45Q775.72 279.24 774.10 279.24L774.10 279.24Q773.50 279.24 773.07 279.39L773.07 279.39L772.66 279.53L772.66 283.85L772.29 283.94Q771.83 284.00 771.51 284.00L771.51 284.00Q770.53 284.00 769.94 283.41Q769.35 282.82 769.35 281.84L769.35 281.84Q769.35 280.51 770.69 279.59Q772.03 278.67 774.68 278.67L774.68 278.67Q776.92 278.67 778.55 279.46Q780.18 280.25 781.03 281.65Q781.88 283.05 781.88 284.86L781.88 284.86L781.88 292.64L783.61 293.07L783.61 293.50L781.01 293.50Q779.29 293.50 778.34 292.43L778.34 292.43Q777.93 292.00 777.70 291.34L777.70 291.34Q777.30 292.06 776.75 292.64L776.75 292.64Q775.46 293.93 773.53 293.93L773.53 293.93ZM774.68 292.92Q775.74 292.92 776.61 291.77L776.61 291.77Q776.92 291.34 777.27 290.62L777.27 290.62L777.27 286.44Q775.95 286.44 774.74 286.59L774.74 286.59Q773.84 286.70 773.53 286.73L773.53 286.73Q773.38 287.05 773.24 287.60L773.24 287.60Q772.95 288.69 772.95 289.76L772.95 289.76Q772.95 291.37 773.44 292.15Q773.93 292.92 774.68 292.92L774.68 292.92ZM785.33 293.50L785.33 293.07L787.06 292.64L787.06 279.96L785.33 279.53L785.33 279.10L787.93 279.10Q789.63 279.10 790.60 280.19L790.60 280.19Q790.98 280.63 791.24 281.26L791.24 281.26Q791.64 280.51 792.19 279.96L792.19 279.96Q793.48 278.67 795.41 278.67L795.41 278.67Q797.03 278.67 798.31 279.34Q799.59 280.02 800.31 281.12Q801.03 282.21 801.03 283.42L801.03 283.42L801.03 292.64L802.76 293.07L802.76 293.50L799.01 293.50Q796.42 293.50 796.42 290.91L796.42 290.91L796.42 283.42Q796.42 281.61 795.77 280.64Q795.13 279.68 794.26 279.68L794.26 279.68Q793.17 279.68 792.30 280.83L792.30 280.83Q791.93 281.32 791.67 281.98L791.67 281.98L791.67 292.64L793.40 293.07L793.40 293.50L785.33 293.50ZM820.18 293.79L812.41 274.06L810.82 273.77L810.82 273.34L814.28 273.34Q815.80 273.34 816.78 274.03Q817.76 274.72 818.17 275.79L818.17 275.79L822.52 286.88L825.05 279.45L822.92 274.06L821.33 273.77L821.33 273.34L824.79 273.34Q826.32 273.34 827.27 274.02Q828.22 274.69 828.68 275.79L828.68 275.79L833.03 286.88L837.17 274.64L835.01 273.77L835.01 273.34L840.34 273.34L840.34 273.77L838.04 274.64L831.56 293.79L830.69 293.79L825.51 280.63L821.05 293.79L820.18 293.79ZM847.11 293.93Q843.54 293.93 841.51 291.90Q839.48 289.87 839.48 286.30L839.48 286.30Q839.48 282.73 841.51 280.70Q843.54 278.67 847.11 278.67L847.11 278.67Q850.68 278.67 852.71 280.70Q854.74 282.73 854.74 286.30L854.74 286.30Q854.74 289.87 852.71 291.90Q850.68 293.93 847.11 293.93L847.11 293.93ZM847.11 293.36Q848.26 293.36 849.05 291.74Q849.85 290.13 849.85 286.30L849.85 286.30Q849.85 282.47 849.05 280.86Q848.26 279.24 847.11 279.24L847.11 279.24Q845.96 279.24 845.17 280.86Q844.37 282.47 844.37 286.30L844.37 286.30Q844.37 290.13 845.17 291.74Q845.96 293.36 847.11 293.36L847.11 293.36ZM857.05 293.50L857.05 293.07L858.77 292.64L858.77 279.96L857.05 279.53L857.05 279.10L859.64 279.10Q861.34 279.10 862.32 280.19L862.32 280.19Q862.69 280.63 862.95 281.26L862.95 281.26Q863.38 280.63 864.02 280.11L864.02 280.11Q865.46 278.96 867.24 278.96L867.24 278.96Q868.77 278.96 869.53 279.66Q870.29 280.37 870.29 281.69L870.29 281.69Q870.29 282.67 869.70 283.26Q869.11 283.85 868.13 283.85L868.13 283.85Q867.73 283.85 867.33 283.79L867.33 283.79L866.98 283.71L866.98 279.68Q865.51 279.68 864.30 280.83L864.30 280.83Q863.73 281.40 863.38 281.98L863.38 281.98L863.38 292.64L865.11 293.07L865.11 293.50L857.05 293.50ZM877.49 293.93Q875.80 293.93 874.47 293.05Q873.15 292.18 872.37 290.46Q871.59 288.75 871.59 286.30L871.59 286.30Q871.59 282.61 873.30 280.64Q875.02 278.67 877.93 278.67L877.93 278.67Q879.31 278.67 880.35 279.24L880.35 279.24Q880.78 279.45 881.24 279.82L881.24 279.82L881.24 274.20L879.51 273.77L879.51 273.34L883.25 273.34Q885.85 273.34 885.85 275.93L885.85 275.93L885.85 292.64L887.57 293.07L887.57 293.50L884.98 293.50Q883.25 293.50 882.30 292.43L882.30 292.43Q881.90 292.00 881.67 291.34L881.67 291.34Q881.30 292.06 880.72 292.64L880.72 292.64Q879.42 293.93 877.49 293.93L877.49 293.93ZM878.65 292.92Q879.71 292.92 880.58 291.77L880.58 291.77Q880.89 291.34 881.24 290.62L881.24 290.62L881.24 280.68Q880.92 280.37 880.58 280.11L880.58 280.11Q879.80 279.53 879.08 279.53L879.08 279.53Q877.84 279.53 877.16 280.97Q876.49 282.41 876.49 286.30L876.49 286.30Q876.49 290.02 877.11 291.47Q877.72 292.92 878.65 292.92L878.65 292.92Z" data-element="slogan" data-text-path="" data-text="Action Speaks Louder Than Word" data-font-family="Yeseva One" fill="#000000" fill-opacity="1"></path></g></g></svg>